<svg
              xmlns="http://www.w3.org/2000/svg"
              fill-rule="evenodd"
              stroke-linejoin="round"
              stroke-miterlimit="2"
              clip-rule="evenodd"
              viewBox="0 0 32 32"
              width="48"
              height="48"
            >
              <g
                transform="translate(-104 -104)"
                fill="#ffffff"
                class="color000 svgShape"
              >
                <path
                  d="M133.999 133a3 3 0 0 0-3-3H109a3 3 0 0 0-3 3s0 .552 0 0a3 3 0 0 0 3 3H131a3 3 0 0 0 3-3Zm-2 0a1 1 0 0 1-1 1H109a1 1 0 0 1-1-1c0 .552 0 0 0 0a1 1 0 0 1 1-1H131a1 1 0 0 1 1 1Z"
                  fill="#ffffff"
                  class="color000 svgShape"
                ></path>
                <path
                  d="M130.454 129a2.997 2.997 0 0 0-3-3h-14.909a3 3 0 0 0-3 3v2a1 1 0 0 0 1 1h18.91a1 1 0 0 0 1-1v-2Zm-2 0v1h-16.909v-1a1.002 1.002 0 0 1 1-1h14.91a1 1 0 0 1 1 1ZM119 105v5a1 1 0 0 0 2 0v-5a1 1 0 0 0-2 0ZM109 105v2a1 1 0 0 0 2 0v-2a1 1 0 0 0-2 0ZM129 105v2a1 1 0 0 0 2 0v-2a1 1 0 0 0-2 0Z"
                  fill="#ffffff"
                  class="color000 svgShape"
                ></path>
                <path
                  d="M122.258 106.258h-4.517a1 1 0 0 0 0 2h4.517a1 1 0 0 0 0-2ZM120 110c-1.381 0-2.678.681-3.713 1.896-1.368 1.605-2.287 4.185-2.287 7.104 0 2.92.919 5.5 2.287 7.104 1.035 1.215 2.332 1.897 3.713 1.897 1.381 0 2.678-.682 3.713-1.897C125.081 124.5 126 121.92 126 119s-.919-5.5-2.287-7.104c-1.035-1.215-2.332-1.895-3.713-1.895Zm0 2c.827 0 1.571.466 2.191 1.193 1.115 1.308 1.809 3.428 1.809 5.807 0 2.38-.694 4.499-1.809 5.807-.62.727-1.364 1.194-2.191 1.194-.827 0-1.571-.467-2.191-1.194C116.694 123.5 116 121.38 116 119c0-2.38.694-4.499 1.809-5.807.62-.727 1.364-1.192 2.191-1.192Z"
                  fill="#ffffff"
                  class="color000 svgShape"
                ></path>
                <path
                  d="M123.889 114.571a1 1 0 0 0-.38 1.121c.315.994.491 2.118.491 3.308 0 3.113-1.158 5.806-2.913 6.721a1.001 1.001 0 0 0 .025 1.786c1.034.503 2.321.624 3.705.347 1.885-.378 3.973-1.5 5.755-3.282 2.064-2.064 3.239-4.539 3.406-6.641.127-1.591-.308-2.989-1.285-3.966-.821-.82-1.935-1.258-3.215-1.303-1.695-.059-3.711.593-5.589 1.909zm1.734 1.254c1.062-.643 2.148-1.038 3.145-1.14 1-.103 1.902.086 2.511.695.585.584.782 1.44.706 2.393-.137 1.713-1.145 3.703-2.827 5.385-1.471 1.471-3.178 2.423-4.733 2.735a6.014 6.014 0 0 1-.63.091c1.322-1.633 2.205-4.142 2.205-6.984 0-1.12-.134-2.191-.377-3.175zm-6.735 11.682a1 1 0 0 0 .025-1.786c-1.755-.915-2.913-3.608-2.913-6.721 0-1.19.176-2.314.491-3.308a1 1 0 0 0-.38-1.121c-1.878-1.316-3.894-1.968-5.589-1.909-1.28.045-2.394.483-3.215 1.303-.977.977-1.412 2.375-1.285 3.966.167 2.102 1.342 4.577 3.406 6.641 1.782 1.782 3.87 2.904 5.755 3.282 1.384.277 2.671.156 3.705-.347zm-2.682-1.523a5.995 5.995 0 0 1-.631-.091c-1.555-.312-3.262-1.264-4.733-2.735-1.682-1.682-2.69-3.672-2.827-5.385-.076-.953.121-1.809.706-2.393.609-.609 1.511-.798 2.511-.695.997.102 2.083.497 3.145 1.14A13.282 13.282 0 0 0 114 119c0 2.842.883 5.351 2.204 6.983l.002.001z"
                  fill="#ffffff"
                  class="color000 svgShape"
                ></path>
                <circle
                  cx="92"
                  cy="111"
                  r="1"
                  transform="translate(18 -.5)"
                  fill="#ffffff"
                  class="color000 svgShape"
                ></circle>
                <circle
                  cx="92"
                  cy="111"
                  r="1"
                  transform="translate(38 -.5)"
                  fill="#ffffff"
                  class="color000 svgShape"
                ></circle>
              </g>
            </svg>