
<svg width="700pt" height="700pt" version="1.1" viewBox="0 0 700 700" xmlns="http://www.w3.org/2000/svg" xmlns:xlink="http://www.w3.org/1999/xlink">
 <defs>
  <symbol id="u" overflow="visible">
   <path d="m3.6562-0.21875c-0.1875 0.09375-0.38672 0.16797-0.59375 0.21875-0.19922 0.050781-0.40625 0.078125-0.625 0.078125-0.66797 0-1.1992-0.17969-1.5938-0.54688-0.38672-0.375-0.57812-0.87891-0.57812-1.5156 0-0.64453 0.19141-1.1484 0.57812-1.5156 0.39453-0.375 0.92578-0.5625 1.5938-0.5625 0.21875 0 0.42578 0.027344 0.625 0.078125 0.20703 0.054687 0.40625 0.125 0.59375 0.21875v0.82812c-0.1875-0.125-0.375-0.21875-0.5625-0.28125-0.17969-0.0625-0.37109-0.09375-0.57812-0.09375-0.36719 0-0.65625 0.12109-0.875 0.35938-0.21094 0.23047-0.3125 0.55469-0.3125 0.96875 0 0.40625 0.10156 0.73047 0.3125 0.96875 0.21875 0.23047 0.50781 0.34375 0.875 0.34375 0.20703 0 0.39844-0.023437 0.57812-0.078125 0.1875-0.0625 0.375-0.16016 0.5625-0.29688z"/>
  </symbol>
  <symbol id="b" overflow="visible">
   <path d="m2.6875-2.1719c-0.085938-0.039063-0.16797-0.070313-0.25-0.09375-0.085938-0.019531-0.16797-0.03125-0.25-0.03125-0.25 0-0.44531 0.085937-0.57812 0.25-0.125 0.15625-0.1875 0.38281-0.1875 0.67188v1.375h-0.96875v-2.9844h0.96875v0.48438c0.11328-0.19531 0.25-0.33594 0.40625-0.42188 0.16406-0.09375 0.35938-0.14062 0.57812-0.14062h0.10938c0.039063 0 0.09375 0.007812 0.15625 0.015625z"/>
  </symbol>
  <symbol id="a" overflow="visible">
   <path d="m3.4375-1.5v0.26562h-2.2344c0.03125 0.23047 0.11328 0.40234 0.25 0.51562 0.13281 0.10547 0.32812 0.15625 0.57812 0.15625 0.20703 0 0.41406-0.023438 0.625-0.078125 0.20703-0.0625 0.42188-0.15625 0.64062-0.28125v0.73438c-0.21875 0.09375-0.44531 0.16406-0.67188 0.20312-0.23047 0.039062-0.45312 0.0625-0.67188 0.0625-0.54297 0-0.96484-0.13281-1.2656-0.40625-0.30469-0.28125-0.45312-0.67188-0.45312-1.1719 0-0.47656 0.14453-0.85938 0.4375-1.1406 0.30078-0.28125 0.70703-0.42188 1.2188-0.42188 0.46875 0 0.84375 0.14062 1.125 0.42188s0.42188 0.66406 0.42188 1.1406zm-0.96875-0.32812c0-0.17578-0.058594-0.31641-0.17188-0.42188-0.10547-0.11328-0.24219-0.17188-0.40625-0.17188-0.1875 0-0.33984 0.054687-0.45312 0.15625-0.11719 0.10547-0.1875 0.25-0.21875 0.4375z"/>
  </symbol>
  <symbol id="k" overflow="visible">
   <path d="m1.7969-1.3438c-0.19922 0-0.35156 0.039062-0.45312 0.10938-0.09375 0.0625-0.14062 0.16406-0.14062 0.29688 0 0.11719 0.035156 0.21094 0.10938 0.28125 0.082031 0.0625 0.19531 0.09375 0.34375 0.09375 0.17578 0 0.32812-0.0625 0.45312-0.1875s0.1875-0.28516 0.1875-0.48438v-0.10938zm1.4688-0.35938v1.7031h-0.96875v-0.4375c-0.125 0.17969-0.27344 0.30859-0.4375 0.39062-0.15625 0.082031-0.35156 0.125-0.57812 0.125-0.3125 0-0.57031-0.085938-0.76562-0.26562-0.1875-0.1875-0.28125-0.42188-0.28125-0.70312 0-0.35156 0.11719-0.61328 0.35938-0.78125 0.23828-0.16406 0.61719-0.25 1.1406-0.25h0.5625v-0.0625c0-0.15625-0.0625-0.26562-0.1875-0.32812-0.11719-0.070312-0.29688-0.10938-0.54688-0.10938-0.21094 0-0.40234 0.023437-0.57812 0.0625-0.17969 0.042969-0.33984 0.10156-0.48438 0.17188v-0.71875c0.19531-0.050781 0.39844-0.085938 0.60938-0.10938 0.20703-0.03125 0.41406-0.046875 0.625-0.046875 0.53906 0 0.92969 0.10938 1.1719 0.32812 0.23828 0.21094 0.35938 0.55469 0.35938 1.0312z"/>
  </symbol>
  <symbol id="c" overflow="visible">
   <path d="m1.5-3.8438v0.85938h0.98438v0.67188h-0.98438v1.2812c0 0.13672 0.023438 0.23047 0.078125 0.28125 0.0625 0.042969 0.17578 0.0625 0.34375 0.0625h0.48438v0.6875h-0.8125c-0.38672 0-0.65625-0.078125-0.8125-0.23438s-0.23438-0.42188-0.23438-0.79688v-1.2812h-0.46875v-0.67188h0.46875v-0.85938z"/>
  </symbol>
  <symbol id="j" overflow="visible">
   <path d="m2.5-2.5469v-1.6094h0.95312v4.1562h-0.95312v-0.4375c-0.13672 0.17969-0.28125 0.30859-0.4375 0.39062-0.15625 0.082031-0.33984 0.125-0.54688 0.125-0.375 0-0.68359-0.14453-0.92188-0.4375-0.23047-0.28906-0.34375-0.67188-0.34375-1.1406 0-0.45703 0.11328-0.83203 0.34375-1.125 0.23828-0.28906 0.54688-0.4375 0.92188-0.4375 0.19531 0 0.375 0.042969 0.53125 0.125 0.16406 0.085938 0.31641 0.21484 0.45312 0.39062zm-0.64062 1.9375c0.20703 0 0.36328-0.070313 0.46875-0.21875 0.11328-0.15625 0.17188-0.37891 0.17188-0.67188 0-0.28125-0.058594-0.49219-0.17188-0.64062-0.10547-0.15625-0.26172-0.23438-0.46875-0.23438-0.19922 0-0.35547 0.078125-0.46875 0.23438-0.10547 0.14844-0.15625 0.35938-0.15625 0.64062 0 0.29297 0.050781 0.51562 0.15625 0.67188 0.11328 0.14844 0.26953 0.21875 0.46875 0.21875z"/>
  </symbol>
  <symbol id="i" overflow="visible">
   <path d="m2.0469-0.60938c0.20703 0 0.36328-0.070313 0.46875-0.21875 0.11328-0.15625 0.17188-0.37891 0.17188-0.67188 0-0.28125-0.058594-0.49219-0.17188-0.64062-0.10547-0.15625-0.26172-0.23438-0.46875-0.23438-0.19922 0-0.35547 0.078125-0.46875 0.23438-0.10547 0.14844-0.15625 0.35938-0.15625 0.64062 0 0.29297 0.050781 0.51562 0.15625 0.67188 0.11328 0.14844 0.26953 0.21875 0.46875 0.21875zm-0.625-1.9375c0.125-0.17578 0.26562-0.30469 0.42188-0.39062 0.16406-0.082031 0.35156-0.125 0.5625-0.125 0.36328 0 0.66406 0.14844 0.90625 0.4375 0.23828 0.29297 0.35938 0.66797 0.35938 1.125 0 0.46875-0.12109 0.85156-0.35938 1.1406-0.24219 0.29297-0.54297 0.4375-0.90625 0.4375-0.21094 0-0.39844-0.042969-0.5625-0.125-0.15625-0.082031-0.29688-0.21094-0.42188-0.39062v0.4375h-0.96875v-4.1562h0.96875z"/>
  </symbol>
  <symbol id="h" overflow="visible">
   <path d="m0.0625-2.9844h0.95312l0.8125 2.0156 0.6875-2.0156h0.95312l-1.2656 3.2656c-0.125 0.33203-0.27344 0.56641-0.4375 0.70312-0.16797 0.13281-0.39062 0.20312-0.67188 0.20312h-0.54688v-0.64062h0.29688c0.16406 0 0.28516-0.027344 0.35938-0.078125 0.070313-0.054688 0.12891-0.14062 0.17188-0.26562l0.03125-0.09375z"/>
  </symbol>
  <symbol id="g" overflow="visible">
   <path d="m0.03125-3.9844h1.0312l1.0625 2.9375 1.0469-2.9375h1.0312l-1.4688 3.9844h-1.2344z"/>
  </symbol>
  <symbol id="t" overflow="visible">
   <path d="m0.45312-2.9844h0.96875v2.9844h-0.96875zm0-1.1719h0.96875v0.78125h-0.96875z"/>
  </symbol>
  <symbol id="f" overflow="visible">
   <path d="m2.875-2.8906v0.76562c-0.125-0.082031-0.25781-0.14453-0.39062-0.1875-0.13672-0.039062-0.27344-0.0625-0.40625-0.0625-0.27344 0-0.48047 0.078125-0.625 0.23438-0.14844 0.15625-0.21875 0.37109-0.21875 0.64062 0 0.28125 0.070313 0.5 0.21875 0.65625 0.14453 0.15625 0.35156 0.23438 0.625 0.23438 0.14453 0 0.28516-0.019531 0.42188-0.0625 0.13281-0.039063 0.25781-0.10938 0.375-0.20312v0.78125c-0.14844 0.0625-0.29688 0.10156-0.45312 0.125-0.15625 0.03125-0.3125 0.046875-0.46875 0.046875-0.54297 0-0.96484-0.13281-1.2656-0.40625-0.30469-0.28125-0.45312-0.67188-0.45312-1.1719 0-0.48828 0.14844-0.86719 0.45312-1.1406 0.30078-0.28125 0.72266-0.42188 1.2656-0.42188 0.15625 0 0.3125 0.015625 0.46875 0.046875 0.15625 0.023437 0.30469 0.0625 0.45312 0.125z"/>
  </symbol>
  <symbol id="d" overflow="visible">
   <path d="m1.875-2.375c-0.21094 0-0.37109 0.078125-0.48438 0.23438-0.10547 0.14844-0.15625 0.35938-0.15625 0.64062 0 0.29297 0.050781 0.51562 0.15625 0.67188 0.11328 0.14844 0.27344 0.21875 0.48438 0.21875 0.20703 0 0.36719-0.070313 0.48438-0.21875 0.11328-0.15625 0.17188-0.37891 0.17188-0.67188 0-0.28125-0.058594-0.49219-0.17188-0.64062-0.11719-0.15625-0.27734-0.23438-0.48438-0.23438zm0-0.6875c0.51953 0 0.92188 0.14062 1.2031 0.42188 0.28906 0.27344 0.4375 0.65234 0.4375 1.1406 0 0.5-0.14844 0.89062-0.4375 1.1719-0.28125 0.27344-0.68359 0.40625-1.2031 0.40625-0.51172 0-0.91406-0.13281-1.2031-0.40625-0.29297-0.28125-0.4375-0.67188-0.4375-1.1719 0-0.48828 0.14453-0.86719 0.4375-1.1406 0.28906-0.28125 0.69141-0.42188 1.2031-0.42188z"/>
  </symbol>
  <symbol id="e" overflow="visible">
   <path d="m0.42188-1.1719v-1.8125h0.96875v0.29688 0.60938 0.48438c0 0.24219 0.003906 0.41797 0.015625 0.53125 0.007812 0.10547 0.03125 0.17969 0.0625 0.21875 0.039062 0.0625 0.09375 0.11719 0.15625 0.15625 0.0625 0.03125 0.13281 0.046875 0.21875 0.046875 0.19531 0 0.35156-0.078125 0.46875-0.23438 0.11328-0.15625 0.17188-0.36719 0.17188-0.64062v-1.4688h0.95312v2.9844h-0.95312v-0.4375c-0.14844 0.17969-0.30469 0.30859-0.46875 0.39062-0.15625 0.082031-0.33594 0.125-0.53125 0.125-0.34375 0-0.60938-0.10156-0.79688-0.3125-0.17969-0.21875-0.26562-0.53125-0.26562-0.9375z"/>
  </symbol>
  <symbol id="s" overflow="visible">
   <path d="m0.45312-4.1562h0.96875v4.1562h-0.96875z"/>
  </symbol>
  <symbol id="r" overflow="visible">
   <path d="m2.4219-4.1562v0.625h-0.51562c-0.13672 0-0.23438 0.027344-0.29688 0.078125-0.054687 0.054687-0.078125 0.13672-0.078125 0.25v0.21875h0.82812v0.67188h-0.82812v2.3125h-0.95312v-2.3125h-0.46875v-0.67188h0.46875v-0.21875c0-0.32031 0.085937-0.5625 0.26562-0.71875 0.1875-0.15625 0.47266-0.23438 0.85938-0.23438z"/>
  </symbol>
  <symbol id="q" overflow="visible">
   <path d="m3.2344-2.5c0.11328-0.17578 0.25391-0.3125 0.42188-0.40625 0.16406-0.10156 0.35156-0.15625 0.5625-0.15625 0.33203 0 0.58594 0.10938 0.76562 0.32812 0.1875 0.21094 0.28125 0.51172 0.28125 0.90625v1.8281h-0.96875v-1.5625c0.007813-0.019531 0.015625-0.039062 0.015625-0.0625v-0.10938c0-0.21875-0.03125-0.375-0.09375-0.46875s-0.16406-0.14062-0.29688-0.14062c-0.1875 0-0.33594 0.078125-0.4375 0.23438-0.09375 0.14844-0.14062 0.35938-0.14062 0.64062v1.4688h-0.96875v-1.5625c0-0.33203-0.03125-0.54688-0.09375-0.64062-0.054688-0.09375-0.15234-0.14062-0.29688-0.14062-0.17969 0-0.32031 0.078125-0.42188 0.23438-0.09375 0.14844-0.14062 0.35938-0.14062 0.64062v1.4688h-0.96875v-2.9844h0.96875v0.4375c0.11328-0.17578 0.24219-0.30469 0.39062-0.39062 0.15625-0.082031 0.32812-0.125 0.51562-0.125 0.20703 0 0.39062 0.054688 0.54688 0.15625 0.15625 0.09375 0.27344 0.23047 0.35938 0.40625z"/>
  </symbol>
  <symbol id="p" overflow="visible">
   <path d="m3.4688-1.8281v1.8281h-0.96875v-1.3906c0-0.25781-0.007812-0.4375-0.015625-0.53125-0.011719-0.10156-0.03125-0.17578-0.0625-0.21875-0.03125-0.0625-0.085937-0.10938-0.15625-0.14062-0.0625-0.039062-0.13281-0.0625-0.20312-0.0625-0.21094 0-0.37109 0.078125-0.48438 0.23438-0.10547 0.15625-0.15625 0.37109-0.15625 0.64062v1.4688h-0.96875v-4.1562h0.96875v1.6094c0.13281-0.17578 0.28516-0.30469 0.45312-0.39062 0.16406-0.082031 0.34375-0.125 0.53125-0.125 0.34375 0 0.60156 0.10938 0.78125 0.32812 0.1875 0.21094 0.28125 0.51172 0.28125 0.90625z"/>
  </symbol>
  <symbol id="o" overflow="visible">
   <path d="m0.5-3.9844h1.1562l1.4375 2.7344v-2.7344h0.98438v3.9844h-1.1562l-1.4375-2.7344v2.7344h-0.98438z"/>
  </symbol>
  <symbol id="n" overflow="visible">
   <path d="m3.4688-1.8281v1.8281h-0.96875v-1.3906c0-0.25781-0.007812-0.4375-0.015625-0.53125-0.011719-0.10156-0.03125-0.17578-0.0625-0.21875-0.03125-0.0625-0.085937-0.10938-0.15625-0.14062-0.0625-0.039062-0.13281-0.0625-0.20312-0.0625-0.21094 0-0.37109 0.078125-0.48438 0.23438-0.10547 0.15625-0.15625 0.37109-0.15625 0.64062v1.4688h-0.96875v-2.9844h0.96875v0.4375c0.13281-0.17578 0.28516-0.30469 0.45312-0.39062 0.16406-0.082031 0.34375-0.125 0.53125-0.125 0.34375 0 0.60156 0.10938 0.78125 0.32812 0.1875 0.21094 0.28125 0.51172 0.28125 0.90625z"/>
  </symbol>
  <symbol id="m" overflow="visible">
   <path d="m0.5-3.9844h1.7031c0.50781 0 0.89844 0.11719 1.1719 0.34375 0.26953 0.21875 0.40625 0.53906 0.40625 0.95312 0 0.41797-0.13672 0.74219-0.40625 0.96875-0.27344 0.21875-0.66406 0.32812-1.1719 0.32812h-0.67188v1.3906h-1.0312zm1.0312 0.75v1.1094h0.5625c0.19531 0 0.34766-0.046875 0.45312-0.14062 0.11328-0.10156 0.17188-0.24219 0.17188-0.42188 0-0.17578-0.058594-0.3125-0.17188-0.40625-0.10547-0.09375-0.25781-0.14062-0.45312-0.14062z"/>
  </symbol>
  <symbol id="l" overflow="visible">
   <path d="m0.45312-2.9844h0.96875v2.9375c0 0.39453-0.10156 0.69531-0.29688 0.90625-0.1875 0.21875-0.46484 0.32812-0.82812 0.32812h-0.48438v-0.64062h0.17188c0.17578 0 0.29688-0.042969 0.35938-0.125 0.070312-0.074219 0.10938-0.23047 0.10938-0.46875zm0-1.1719h0.96875v0.78125h-0.96875z"/>
  </symbol>
 </defs>
 <g>
  <path fill="#fff" d="m496.01 219.17c-0.88281-7.375-2.5391-14.637-4.9414-21.664-2.2734-7.3281-4.4258-14.289-5.2305-24.445 5.1523-4.0625 7.9023-10.453 7.3164-16.988-0.58594-6.5352-4.4297-12.332-10.223-15.414 5.2852-5.5547 8.2344-12.926 8.2383-20.594-0.066407-10.488-5.6953-20.152-14.789-25.375-9.0898-5.2266-20.277-5.2266-29.367 0-9.0938 5.2227-14.723 14.887-14.789 25.375 0.003906 7.668 2.9531 15.043 8.2422 20.598-5.7891 3.0859-9.6289 8.8828-10.211 15.414-0.58594 6.5352 2.1641 12.922 7.3164 16.98-0.80469 10.16-2.9531 17.117-5.2305 24.445v0.003906c-2.4023 7.0234-4.0547 14.285-4.9375 21.656-4.2969 1.2969-8.0625 3.9453-10.738 7.5508-2.6797 3.6055-4.1211 7.9727-4.1211 12.465 0 4.6797 1.8594 9.168 5.1719 12.477 3.3086 3.3086 7.7969 5.1641 12.48 5.1602h63.02-0.003906c4.6836 0 9.1719-1.8555 12.48-5.1641 3.3125-3.3125 5.1719-7.8008 5.1719-12.48-0.003906-4.4844-1.4531-8.8516-4.1289-12.449-2.6719-3.6016-6.4336-6.25-10.727-7.5508zm-22.238-67.684c1.6953-0.023437 3.3281 0.63672 4.5352 1.8242 1.207 1.1914 1.8828 2.8164 1.8828 4.5117 0 1.6914-0.67578 3.3164-1.8828 4.5078-1.207 1.1914-2.8398 1.8477-4.5352 1.8242h-24.129c-1.6953 0.023437-3.3281-0.63281-4.5352-1.8242-1.2031-1.1914-1.8828-2.8164-1.8828-4.5078 0-1.6953 0.67969-3.3203 1.8828-4.5117 1.207-1.1875 2.8398-1.8477 4.5352-1.8242zm-0.71094 25.793c0.99609 8.2031 2.8281 16.285 5.4688 24.113 1.8672 5.4961 3.2578 11.145 4.1562 16.883h-41.961c0.89453-5.7383 2.2852-11.387 4.1562-16.883 2.6406-7.8281 4.4727-15.91 5.4688-24.113zm-11.363-73.371c4.3398-0.125 8.5391 1.5312 11.629 4.582 3.0859 3.0547 4.7891 7.2344 4.7188 11.574 0.011719 4.3945-1.7148 8.6172-4.8047 11.746-1.875 1.8789-3.3633 4.1016-4.3867 6.5508h-14.348c-1.0078-2.4492-2.4844-4.6758-4.3516-6.5508-3.0898-3.1289-4.8164-7.3516-4.8047-11.746-0.070312-4.3398 1.6328-8.5195 4.7188-11.574 3.0898-3.0508 7.2891-4.707 11.629-4.582zm35.887 136.45c-0.53516 1.9727-2.3281 3.3398-4.3711 3.332h-63.016c-1.2031 0.003906-2.3555-0.46875-3.2031-1.3164-0.85156-0.84766-1.3281-2-1.3242-3.2031 0-2.0586 0.81641-4.0352 2.2734-5.4922 1.457-1.457 3.4336-2.2734 5.4922-2.2734h56.535c4.2852 0.007812 7.7578 3.4805 7.7656 7.7656 0 0.40234-0.050781 0.79688-0.15234 1.1836z"/>
  <path fill="#fff" d="m373.57 180h-42.363c-3.625 0-6.5625-2.9375-6.5625-6.5625s2.9375-6.5625 6.5625-6.5625h42.367-0.003906c3.625 0 6.5625 2.9375 6.5625 6.5625s-2.9375 6.5625-6.5625 6.5625z"/>
  <path d="m373.57 213.28h-42.363c-3.625 0-6.5625-2.9375-6.5625-6.5625s2.9375-6.5625 6.5625-6.5625h42.367-0.003906c3.625 0 6.5625 2.9375 6.5625 6.5625s-2.9375 6.5625-6.5625 6.5625z"/>
  <path fill="#fff" d="m619.25 341.06c-3.8398-20.734-18.586-37.258-39.551-43.512-9.7773-2.8164-20.148-2.8398-29.938-0.0625-32.578 8.9336-72.316 19.152-91.371 19.152h-0.57812c-22.363-0.27734-75 0.68359-99.434 14.691-13.047-7.1562-27.379-11.668-42.176-13.277-20.531-2.4844-73.988-1.3672-89.883-0.96484-28.277 0.70703-50.625-7.1914-70.547-15.848-14.004-6.1602-29.961-6.1328-43.945 0.074218-13.984 6.2109-24.707 18.027-29.531 32.547-4.8242 14.523-3.3047 30.402 4.1875 43.746 7.4883 13.344 20.254 22.914 35.164 26.355 27.957 6.4688 58.082 13.742 69.547 18.66 8.7617 3.7617 40.797 28.496 52.055 35.977 0.24609 4.8633 2.9414 9.4141 7.668 12.582 4.1484 2.6641 8.9766 4.0703 13.906 4.0469 1.2383 0 2.4766-0.089844 3.7031-0.27734 1.8984 4.6562 5.1055 8.6641 9.2344 11.527 4.1328 2.8672 9.0078 4.4688 14.035 4.6133 2.0781 0.003906 4.1445-0.30469 6.1289-0.91797 0.92578 1.5312 2.0938 2.9023 3.4531 4.0664 4.3281 3.5 9.7578 5.3477 15.32 5.2227 2.4922-0.015625 4.9688-0.33594 7.3828-0.95312 0.26562 0.59766 0.57422 1.1797 0.91406 1.7383 2.8516 4.6484 8.5938 8.7344 17.055 8.7344v0.003906c3.0312-0.03125 6.0469-0.49219 8.9492-1.375 4.9609-1.4492 9.7656-2.9883 14.414-4.6094 1.4062 1.7656 2.9805 3.3867 4.7031 4.8438 3.4141 2.8828 7.7422 4.4609 12.211 4.4531 6.8047-0.11719 13.168-3.3945 17.211-8.8711 2.3164-3.0977 3.6914-6.7969 3.9648-10.656 3.0586 1.9766 6.6211 3.0312 10.266 3.0312 6.8047-0.11719 13.164-3.3945 17.211-8.8711 2.5039-3.3438 3.9023-7.3906 4-11.566 2.7305 1.4414 5.7695 2.1992 8.8594 2.2031 6.8047-0.11719 13.164-3.3945 17.211-8.8672 2.5547-3.4141 3.957-7.5508 4.0078-11.812 2.0195 0.73438 4.1523 1.1133 6.3047 1.1094 6.5234-0.10547 12.625-3.2461 16.504-8.4883 3.6875-4.8867 4.8086-11.242 3.0117-17.094-0.32031-1.0195-0.69141-2.0195-1.1172-2.9961 18.992-10.324 50.734-16.785 79.059-22.547l6.8633-1.3984c14.246-2.9102 26.781-11.281 34.926-23.324 8.1445-12.043 11.246-26.797 8.6406-41.098zm-271.94 153.96c-4.3828 1.2812-8.1055 1.0547-10.215-0.62109-0.53516-0.39062-0.94141-0.93359-1.168-1.5586 3.0781-2.4805 15.758-10.996 27.645-18.727-2.6641 3.2539-4.2031 7.2891-4.375 11.492-0.078125 1.8438 0.074219 3.6875 0.45312 5.4883-4 1.3711-8.1055 2.6875-12.34 3.9258zm253.39-121.72c-6.125 10.016-16.148 17.02-27.656 19.324l-6.8477 1.3984c-31.441 6.3945-63.859 13-84.438 24.852-3.6602-2.9297-8.1992-4.5469-12.887-4.5938-4.0391 0.007812-7.9766 1.2617-11.281 3.5859-4.957 3.3477-8.0352 8.8477-8.2852 14.828-0.011719 0.26172-0.007812 0.52344-0.011719 0.78906-2.6016-1.125-5.4062-1.7148-8.2422-1.7266-4.2031 0.011719-8.3008 1.3164-11.734 3.7344-5.1484 3.4727-8.3398 9.1836-8.6055 15.387-0.023438 0.50781-0.027344 1.0156-0.015625 1.5234-3-1.5664-6.332-2.3906-9.7188-2.4062-4.2031 0.011718-8.2969 1.3164-11.734 3.7344-5.1445 3.4727-8.3398 9.1836-8.6016 15.387-0.007813 0.17969 0 0.36328-0.007813 0.54687-3.3398-2.0508-7.1758-3.1484-11.098-3.1719-4.1992 0.011718-8.2969 1.3164-11.73 3.7344-0.023438 0.015626-0.046875 0.035157-0.070312 0.050782v0.003906c1.2734-2.6484 0.63672-5.8242-1.5703-7.7695-2.2031-1.9453-5.4297-2.1914-7.9023-0.59766-9.9883 6.4766-26.215 17.777-31.293 21.344-7.5469 5.3008-14.547 3.1875-17.047 1.0352l0.003906 0.003906c-0.57812-0.39062-0.94922-1.0195-1.0117-1.7109 10.086-10.844 32.812-33.348 33.055-33.578 2.5469-2.5547 2.5586-6.6875 0.019532-9.2539-2.5391-2.5664-6.6719-2.5977-9.2539-0.078125-1.0117 1-24.863 24.609-34.527 35.156-5.1562 5.5977-10.906 2.3945-13.145 0.75391-3.2617-2.3906-4.4844-5.1953-4.5352-6.4961 15.828-13.938 40.23-46.898 41.293-48.332h0.003906c2.1523-2.918 1.5352-7.0273-1.3828-9.1797-2.9141-2.1523-7.0234-1.5352-9.1758 1.3828-0.25781 0.34766-25.992 35.109-40.523 47.238-3.3828 2.8047-9.2031 2.3086-12.52 0.085937-2.0898-1.4023-1.9297-2.4531-1.7969-2.9102 0.023437-0.070312 0.046875-0.14062 0.066406-0.21484 3.668-11.383 26.215-45.812 46.285-65.516h-0.003906c3.4453-3.3633 7.5391-5.9922 12.031-7.7227l0.10938-0.046875c2.8359-1.0898 5.7969-1.8125 8.8125-2.1562 12.586-1.4102 22.547-0.65625 36.086 22.043 13.125 22.027 31.691 24.898 43.602 20.66 9.2188-3.2812 14.898-10.695 13.82-18.02-1.1055-7.6953-6.3633-14.785-11.004-21.035v0.003906c-2.1484-2.6836-4.0586-5.5508-5.7031-8.5703-6.7578-14.492-16.84-27.188-29.426-37.051 19.773-7.8125 56.055-10.363 86.555-9.9844h0.69531c20.52 0 59.391-9.8945 94.812-19.605h0.003906c10.902-3.0078 22.555-1.5547 32.387 4.043 9.8281 5.5977 17.027 14.879 20.004 25.793 3.0938 11.293 1.332 23.367-4.8594 33.305z"/>
  <path fill="#fff" d="m232.06 142.73h21.984c0.91406-0.003906 1.7266-0.57422 2.0469-1.4297 0.6875-1.8203 1.7578-3.4727 3.1367-4.8477 4.3203-4.3594 6.7422-10.254 6.7305-16.395-0.078126-8.1328-4.4609-15.613-11.516-19.656-7.0586-4.043-15.727-4.043-22.781 0-7.0586 4.043-11.441 11.523-11.52 19.656-0.011719 6.1406 2.4102 12.035 6.7344 16.395 1.375 1.375 2.4453 3.0273 3.1328 4.8477 0.32031 0.85547 1.1367 1.4258 2.0508 1.4297z"/>
  <path fill="#fff" d="m271.33 224.83h-56.527c-3.8008 0-7.4492 1.5078-10.137 4.1953-2.6875 2.6914-4.1992 6.3359-4.1953 10.141 0 2.9414 1.168 5.7617 3.2461 7.8398 2.082 2.0781 4.9023 3.2461 7.8438 3.2422h63.016c2.9414 0.003906 5.7617-1.1641 7.8438-3.2422 2.0781-2.0781 3.2461-4.8984 3.2461-7.8398 0-3.8008-1.5078-7.4492-4.1992-10.137-2.6875-2.6875-6.332-4.1992-10.137-4.1992z"/>
  <path fill="#fff" d="m219.34 211.71h47.453c0.67578 0 1.3125-0.3125 1.7305-0.84766 0.41406-0.53516 0.55859-1.2305 0.39453-1.8867-2.3281-9.3359-5.793-17.164-7.5312-28.945v0.003906c5.1406-2.8516 7.7031-8.8164 6.2305-14.508-1.4688-5.6914-6.6055-9.6641-12.484-9.6641h-24.133c-5.8789 0-11.012 3.9727-12.484 9.6641-1.4727 5.6914 1.0898 11.656 6.2344 14.508-1.7383 11.781-5.1992 19.609-7.5312 28.945-0.16406 0.65234-0.019531 1.3477 0.39453 1.8828 0.41406 0.53125 1.0508 0.84766 1.7266 0.84766z"/>
 </g>
</svg>
