<?xml version="1.0" encoding="UTF-8"?>
<svg width="700pt" height="700pt" version="1.1" viewBox="0 0 700 700" xmlns="http://www.w3.org/2000/svg">
 <g>
  <path d="m516.28 49.477c-10.133-9.375-23.414-14.598-37.215-14.633-13.805-0.03125-27.113 5.1211-37.289 14.445-14.52 11.961-54.801 32.949-161.52 39.016-3.9141 0.21484-7.7891 0.83594-11.57 1.8633-22.594 6.168-96.738 32.402-102.13 110.52-5.9297 86.133-5.8945 101.26 0.28125 124.45 5.0312 18.883 8.2617 26.113 20.133 26.113v-0.003906c5.1289-0.19922 10.223-0.95312 15.191-2.2539 3.5898-0.82813 6.2773-3.8125 6.7266-7.4688 4.3164-35.422 11.293-70.469 20.863-104.85 2.3867-7.0859 6.7617-13.34 12.602-18.012 5.8398-4.6719 12.902-7.5664 20.34-8.3398 12.168-1.207 23.648-6.2188 32.805-14.32 10.93-5.6172 23.641-6.6797 35.352-2.957 21.324 2.4883 40.656 13.738 53.352 31.051 11.68 24.539-21.156 55.422-21.488 55.73-0.98047 0.91016-1.7422 2.0352-2.2227 3.2812-5.2539 12.34-4.832 26.367 1.1523 38.367 2.8945 3.7578 6.7344 6.6758 11.129 8.457 4.3945 1.7812 9.1836 2.3594 13.875 1.6758 28.465-1.2812 93.688-101.98 143.39-186.23 5.082-8.5234 7.7812-18.258 7.8125-28.18 1.6875-24.5-6.0273-48.719-21.574-67.727zm-1.3086 87.02c-68.129 115.46-116.53 176.76-129.12 177.65-5.0508 0.15234-8.4492-0.75391-9.9961-2.8867h-0.003906c-2.375-6.5391-2.2344-13.727 0.39453-20.164 7.8008-7.7773 39.238-42.023 23.762-74.512-10.844-22.781-42.246-36.164-65.84-40.707l0.003907-0.003906c-17.082-5.3008-35.645-2.6289-50.535 7.2812-6.5117 5.6055-14.609 9.0391-23.168 9.8086-10.742 1.1797-20.918 5.4219-29.316 12.219-8.3984 6.8008-14.664 15.871-18.055 26.133-9.5312 33.43-16.484 67.547-20.797 102.04-1.4336 0.19922-2.8086 0.67578-4.0586 1.4023-1.9648-4.5508-3.4688-9.2852-4.4883-14.137-5.5195-20.711-5.4844-35.137 0.27344-118.74 4.5898-66.617 69.496-89.43 89.277-94.832v0.003906c2.5977-0.70312 5.2617-1.1328 7.9453-1.2812 106.1-6.0156 151.91-26.695 171.65-42.98h0.003907c7.8906-6.4805 17.742-10.094 27.949-10.254 8.5938-0.1875 16.887 3.1445 22.961 9.2266 12.02 15.84 17.898 35.5 16.543 55.34-0.027343 6.8281-1.8867 13.527-5.3828 19.395z"/>
  <path d="m377.41 473.21v-27.82c-0.007812-3.4531-2.0352-6.582-5.1875-7.9961-25.797-11.508-38.363-34.77-38.633-70.617h2.8477-0.003906c9.0625 0.023438 17.492-4.625 22.309-12.297s5.3359-17.289 1.3789-25.438c-3.9609-8.1445-11.844-13.676-20.852-14.633 7.0156-11.629 9.7422-25.344 7.7031-38.773v-0.015625c-1.8438-11.867-7.3125-22.871-15.656-31.5-8.3477-8.6328-19.16-14.473-30.957-16.711-17.078-3.1328-34.668 1.4453-48.047 12.512-10.703 8.832-17.84 21.25-20.078 34.941-2.2383 13.695 0.57031 27.738 7.9062 39.52-9.0586 0.85156-17.027 6.332-21.066 14.484s-3.5703 17.812 1.2383 25.535c4.8086 7.7188 13.273 12.402 22.367 12.375h2.8398c-0.26953 35.844-12.836 59.105-38.633 70.617-3.1523 1.4141-5.1836 4.543-5.1875 7.9961v27.82c-9.9297 2.0078-18.855 7.3945-25.266 15.238s-9.9062 17.668-9.8984 27.797c0 2.3203 0.92188 4.5469 2.5625 6.1875 1.6406 1.6406 3.8672 2.5625 6.1875 2.5625h228.54c4.8633-0.070312 8.7656-4.0391 8.75-8.9023-0.015625-10.109-3.5234-19.898-9.9297-27.715-6.4102-7.8164-15.324-13.176-25.23-15.168zm-113.88-219.86c9.3477-7.8398 21.738-11.039 33.719-8.7148 8.168 1.6328 15.648 5.7148 21.438 11.707 5.793 5.9883 9.6172 13.602 10.973 21.824 2.1133 13.309-2.5469 26.793-12.426 35.957h-55.355c-8.2617-7.625-12.941-18.371-12.891-29.617-0.023438-12.027 5.3086-23.445 14.543-31.156zm-29.688 87.109c0.007813-4.8789 3.9609-8.8281 8.8359-8.8359h93.754c4.875 0 8.8281 3.9531 8.8281 8.8281s-3.9531 8.8242-8.8281 8.8242h-93.754c-4.8711 0.003906-8.8281-3.9453-8.8359-8.8164zm29.141 26.316h53.133c0.30078 40.594 14.871 68.938 43.789 84.098v21.465l-140.71 0.003906v-21.465c28.914-15.16 43.488-43.508 43.785-84.102zm-77.504 140.72c1.793-5.1523 5.1445-9.6211 9.5859-12.781 4.4453-3.1641 9.7656-4.8672 15.219-4.8711h158.54c5.4531 0.003906 10.766 1.707 15.207 4.8711s7.7852 7.6289 9.5742 12.781z"/>
 </g>
</svg>
